<?xml version="1.0" standalone="no"?>
<!DOCTYPE svg PUBLIC "-//W3C//DTD SVG 20010904//EN"
 "http://www.w3.org/TR/2001/REC-SVG-20010904/DTD/svg10.dtd">
<svg version="1.0" xmlns="http://www.w3.org/2000/svg"
 width="700.000000pt" height="700.000000pt" viewBox="0 0 700.000000 700.000000"
 preserveAspectRatio="xMidYMid meet">
<metadata>
Created by potrace 1.14, written by Peter Selinger 2001-2017
</metadata>
<g transform="translate(0.000000,700.000000) scale(0.100000,-0.100000)"
fill="#000000" stroke="none">
<path d="M1704 6421 c-54 -25 -111 -83 -138 -140 -19 -42 -21 -63 -21 -241 0
-219 4 -236 72 -310 49 -56 122 -90 191 -90 l52 0 0 -752 0 -753 -902 -1425
c-495 -784 -913 -1447 -927 -1475 -22 -42 -26 -62 -26 -135 0 -74 4 -93 31
-150 77 -162 283 -315 501 -371 74 -18 127 -19 2068 -19 1964 0 1993 0 2071
20 280 72 515 289 531 493 4 42 0 81 -11 118 -8 30 -362 688 -801 1489 l-785
1435 0 760 0 760 51 12 c99 24 178 107 199 210 8 34 11 118 8 217 -3 136 -7
168 -24 206 -30 65 -67 105 -126 134 l-52 26 -960 0 c-916 0 -963 -1 -1002
-19z m1746 -1506 l0 -725 -712 2 -713 3 -3 710 c-1 391 0 716 3 723 3 9 156
12 715 12 l710 0 0 -725z m178 -1180 c84 -154 178 -325 208 -381 l54 -101 -83
25 c-70 21 -103 25 -227 26 -238 1 -376 -36 -880 -239 -336 -135 -501 -192
-660 -226 -88 -20 -134 -23 -290 -23 -168 0 -194 2 -280 26 -52 14 -116 35
-142 46 l-47 21 351 556 351 555 746 -2 745 -3 154 -280z m-792 -1219 c194
-90 189 -391 -8 -476 -73 -31 -175 -25 -243 14 -87 51 -138 173 -116 277 30
136 115 208 251 209 48 0 78 -6 116 -24z m-1159 -814 c151 -77 178 -307 51
-429 -47 -45 -96 -63 -175 -63 -75 0 -151 28 -190 71 -65 71 -87 209 -46 300
27 60 86 116 142 134 63 20 164 14 218 -13z m2130 13 c137 -41 208 -217 144
-360 -29 -65 -55 -93 -116 -121 -60 -29 -165 -33 -223 -8 -147 61 -199 269
-101 404 65 89 175 121 296 85z m-406 -532 c13 -16 12 -17 -3 -4 -10 7 -18 15
-18 17 0 8 8 3 21 -13z m-3141 -258 c13 -14 21 -25 18 -25 -2 0 -15 11 -28 25
-13 14 -21 25 -18 25 2 0 15 -11 28 -25z m4710 12 c0 -2 -10 -12 -22 -23 l-23
-19 19 23 c18 21 26 27 26 19z m-4263 -213 c-3 -3 -12 -4 -19 -1 -8 3 -5 6 6
6 11 1 17 -2 13 -5z"/>
<path d="M2108 3791 c-71 -28 -113 -57 -162 -112 -168 -186 -101 -488 133
-598 49 -23 69 -26 156 -26 87 0 107 3 157 27 295 138 301 547 10 690 -58 29
-78 33 -157 36 -69 1 -101 -2 -137 -17z m217 -160 c137 -62 168 -248 61 -356
-56 -56 -126 -74 -207 -55 -156 37 -213 242 -101 362 62 65 166 86 247 49z"/>
<path d="M5316 6421 c-16 -11 -38 -34 -50 -53 -19 -30 -21 -47 -21 -218 0
-159 3 -190 18 -218 21 -39 68 -70 119 -78 l38 -7 0 -2341 c0 -2301 0 -2344
20 -2420 62 -245 261 -444 506 -506 95 -24 251 -26 344 -4 261 61 481 294 529
558 8 42 11 759 11 2388 l0 2328 22 0 c42 0 104 39 126 79 20 36 22 52 22 220
0 196 -4 213 -55 261 l-27 25 -786 3 c-761 2 -788 1 -816 -17z m1344 -1660 l0
-1089 -47 15 c-63 19 -187 12 -272 -17 -35 -12 -133 -53 -218 -91 -85 -38
-187 -79 -226 -91 -92 -28 -204 -30 -269 -5 l-48 19 0 1174 0 1174 540 0 540
0 0 -1089z m-1073 -3003 c-1 -288 -2 -53 -2 522 0 575 1 810 2 523 2 -288 2
-758 0 -1045z m726 1151 c39 -20 57 -51 57 -102 0 -40 -5 -53 -29 -78 -24 -23
-38 -29 -74 -29 -56 0 -92 27 -108 80 -27 90 70 172 154 129z m-295 -662 c34
-34 40 -101 13 -144 -25 -39 -75 -56 -127 -42 -91 26 -99 172 -10 210 35 15
97 3 124 -24z m32 -590 c0 -2 -12 -14 -27 -28 l-28 -24 24 28 c23 25 31 32 31
24z m229 -131 c33 -17 51 -54 51 -102 0 -53 -53 -104 -109 -104 -79 0 -132 85
-101 160 23 55 99 76 159 46z m231 -640 c0 -2 -8 -10 -17 -17 -16 -13 -17 -12
-4 4 13 16 21 21 21 13z m-377 -163 c-7 -2 -19 -2 -25 0 -7 3 -2 5 12 5 14 0
19 -2 13 -5z"/>
</g>
</svg>
